# xmcd
# 
# Track frame offsets:
#     150
#     19380
#     37674
#     61529
#     82968
#     108701
#     129675
#     148826
#     174929
#     197053
#     217008
#     238899
#     257973
#     282214
#     312599
#     328165
# 
# Disc length: 4619
# 
# Revision: 2
# Processed by: cddbd v1.5.2PL0 Copyright (c) Steve Scherf et al.
# Submitted via: fre:ac v1.0.17
# 
DISCID=f1120910
DTITLE=サザンオールスターズ - sas 1
DYEAR=0
DGENRE=Pop
TTITLE0=マンピーのG★SPOT
TTITLE1=メリージェーンと琢磨仁
TTITLE2=あなただけを -Summer Heartbreak
TTITLE3=LOVE KOREA
TTITLE4=愛の言葉 -Spiritual Message
TTITLE5=恋のジャックナイフ
TTITLE6=太陽は罪な奴
TTITLE7=君に送る LOVE SONG
TTITLE8=01 MESSANGER -電子狂の詩
TTITLE9=SEA SIDE WOMAN BLUE
TTITLE10=BLUE HEAVEN
TTITLE11=世界の屋根を撃つ雨のリズム
TTITLE12=LOVE AFFAIR 〜秘密のデート
TTITLE13=私の世紀末カルテ
TTITLE14=平和の琉歌
TTITLE15=ゆけ!力道山
EXTD=
EXTT0=
EXTT1=
EXTT2=
EXTT3=
EXTT4=
EXTT5=
EXTT6=
EXTT7=
EXTT8=
EXTT9=
EXTT10=
EXTT11=
EXTT12=
EXTT13=
EXTT14=
EXTT15=
PLAYORDER=
